<?xml version="1.0" encoding="utf-8"?>
<svg xmlns="http://www.w3.org/2000/svg" viewBox="0 0 500 500" xmlns:bx="https://boxy-svg.com">
  <g transform="matrix(-0.96317, 0.268893, -0.268893, -0.96317, -481.207801, 83.372789)" style="transform-origin: 257.874px 171.314px;">
    <title>Pancingan</title>
    <path d="M 369.528 325.972 L 331.2003333333334 283.74566666666664 C 292.8726666666667 241.51933333333332 216.21733333333336 157.06666666666666 177.82883333333334 115.1305 C 139.44033333333334 73.19433333333335 139.31866666666667 73.77466666666668 138.836 74.79433333333333 C 138.35333333333332 75.81400000000001 137.50966666666667 77.27300000000001 137.35 78.26633333333334 C 137.19033333333334 79.25966666666666 137.71466666666666 79.78733333333334 176.2175 121.44299999999998 C 214.72033333333334 163.09866666666667 291.20166666666665 245.88233333333332 329.44233333333335 287.27416666666664 L 367.683 328.666" bx:d="M 369.528 325.972 U 139.562 72.614 U 139.197 74.355 U 136.666 78.732 U 138.239 80.315 U 367.683 328.666 1@c91a2e5e" style="transform-origin: 253.706px 200.792px; stroke: rgb(235, 81, 81);" transform="matrix(-0.139177, 0.990268, -0.990268, -0.139177, -0.000004, 0.000003)">
      <title>Pancingan1</title>
    </path>
    <path d="M 381.484 299.057 L 375.34 300.8681666666667 C 369.19599999999997 302.6793333333333 356.90799999999996 306.3016666666667 339.7078333333333 255.6063333333333 C 322.5076666666667 204.91099999999997 300.3953333333333 99.89799999999998 260.2568333333333 70.7415 C 220.11833333333334 41.585 161.95366666666666 88.28500000000001 132.87133333333335 111.635 L 103.789 134.985" bx:d="M 381.484 299.057 U 344.62 309.924 U 278.283 -5.115 U 103.789 134.985 1@143be8a5" style="fill: none; transform-origin: 262.307px 183.057px; stroke: rgb(235, 81, 81);" transform="matrix(-0.139177, 0.990268, -0.990268, -0.139177, -0.000008, 0.000006)">
      <title>Pancingan</title>
    </path>
    <path d="M 331.471 153.187 C 330.026 155.686 323.258 168.791 320.697 169.108 C 319.449 169.263 319.843 165.867 319.016 164.549 C 317.662 162.399 314.865 159.974 313.059 158.556 C 311.802 157.567 304.175 154.783 303.821 152.13 C 303.742 151.527 309.073 145.8 310.128 144.616 C 311.721 142.823 314.741 133.383 316.764 133.135 C 318.458 132.922 318.274 137.264 319.091 139.296 C 320.984 144.017 332.126 148.428 332.665 152.476 C 332.753 153.132 331.789 156.372 330.423 155" style="transform-origin: 318.298px 152.659px; stroke: rgb(235, 81, 81);" transform="matrix(-0.139177, 0.990268, -0.990268, -0.139177, 0, -0.000004)">
      <title>Pancingan</title>
    </path>
    <path d="M 348.39 103.39 C 339.291 119.129 338.293 118.442 325.435 120.036 C 324.327 120.176 318.197 139.622 317.649 139.074 C 313.385 134.783 306.167 133.008 307.163 124.601 C 307.882 118.523 320.209 110.171 322.57 109.879 C 324.952 109.584 329.987 114.923 332.346 115.236 C 335.058 115.596 341.03 100.212 343.189 96.479" style="transform-origin: 326.149px 117.392px; stroke: rgb(235, 81, 81);" transform="matrix(-0.139177, 0.990268, -0.990268, -0.139177, 0.000029, -0.000002)">
      <title>Pancingan</title>
    </path>
    <path d="M 340.451 140.442 C 338.122 138.1 335.585 136.254 333.198 133.854 C 330.555 131.195 327.996 128.444 325.351 125.781 C 324.918 125.346 323.564 123.09 323.088 123.151 C 322.742 123.193 322.714 125.868 322.686 126.112 C 322.647 126.432 321.607 127.94 321.677 128.109 C 322.245 129.525 326.109 131.967 327.006 132.233 C 328.144 132.566 329.328 135.099 330.217 135.993 C 332.743 138.534 335.372 139.94 337.663 142.244" style="transform-origin: 329.716px 135.677px; stroke: rgb(235, 81, 81);" transform="matrix(-0.139177, 0.990268, -0.990268, -0.139177, -0.000004, -0.000021)">
      <title>Pancingan</title>
    </path>
  </g>
  <g transform="matrix(1, 0, 0, 1, -20.180538, 29.261811)">
    <title>Char</title>
    <path d="M 251.51 115.883 L 250.2105 115.46533333333332 C 248.91099999999997 115.04766666666666 246.31199999999998 114.21233333333333 244.36266666666668 115.32633333333332 C 242.41333333333333 116.44033333333333 241.11366666666666 119.50366666666666 241.02083333333334 123.484 C 240.928 127.46433333333333 242.042 132.36166666666665 241.76350000000002 138.62716666666665 C 241.485 144.89266666666666 239.814 152.52633333333333 238.7465 160.24183333333335 C 237.679 167.9573333333333 237.215 175.75466666666668 236.8983333333333 181.851 C 236.58166666666668 187.94733333333332 236.41233333333332 192.34266666666667 234.87783333333334 197.8601666666667 C 233.34333333333333 203.37766666666667 230.44366666666667 210.01733333333334 226.92416666666668 216.16566666666665 C 223.40466666666669 222.314 219.26533333333336 227.971 214.56116666666665 236.04949999999997 C 209.857 244.12800000000001 204.588 254.62800000000001 200.71983333333333 262.6653333333333 C 196.85166666666666 270.70266666666663 194.38433333333333 276.2773333333333 190.04099999999997 283.33466666666664 C 185.69766666666666 290.392 179.47833333333332 298.93199999999996 177.2505 304.50149999999996 C 175.02266666666665 310.07099999999997 176.78633333333335 312.67 178.92133333333334 310.535 C 181.05633333333333 308.40000000000003 183.56266666666667 301.531 185.6976666666667 297.72516666666667 C 187.83266666666668 293.9193333333333 189.59633333333332 293.1766666666667 190.47816666666668 293.7336666666667 C 191.36 294.2906666666667 191.36 296.14733333333334 192.47383333333335 298.1431666666667 C 193.58766666666668 300.139 195.81533333333334 302.274 196.79 301.717 C 197.76466666666667 301.16 197.48633333333336 297.911 198.7395 295.8223333333333 C 199.99266666666668 293.7336666666667 202.77733333333333 292.8053333333333 203.61266666666666 291.181 C 204.448 289.5566666666667 203.33399999999997 287.23633333333333 204.4478333333333 286.401 C 205.56166666666664 285.5656666666667 208.90333333333334 286.2153333333333 210.9455 287.5611666666667 C 212.98766666666666 288.907 213.73033333333333 290.949 214.56583333333336 290.7633333333333 C 215.40133333333335 290.57766666666663 216.32966666666667 288.16433333333333 218.41816666666668 285.5188333333333 C 220.50666666666666 282.8733333333333 223.7553333333333 279.99566666666664 225.5653333333333 280.55266666666665 C 227.37533333333332 281.10966666666667 227.74666666666667 285.10133333333334 228.6285 290.0675 C 229.5103333333333 295.0336666666667 230.90266666666665 300.97433333333333 233.68733333333333 301.949 C 236.47199999999998 302.92366666666663 240.649 298.93233333333336 246.40416666666667 296.89016666666663 C 252.15933333333336 294.84799999999996 259.4926666666667 294.75499999999994 264.0411666666667 295.96166666666664 C 268.5896666666667 297.1683333333333 270.35333333333335 299.6746666666666 273.4628333333333 301.43833333333333 C 276.57233333333335 303.202 281.0276666666667 304.223 288.0358333333333 300.4171666666667 C 295.04400000000004 296.61133333333333 304.605 287.9786666666667 312.1238333333333 283.61600000000004 C 319.6426666666667 279.25333333333333 325.1193333333333 279.16066666666666 326.52733333333333 273.19166666666666 C 327.93533333333335 267.22266666666667 325.27466666666663 255.37733333333335 323.9443333333333 249.45466666666664 L 322.614 243.532" bx:d="M 251.51 115.883 U 243.713 113.377 U 239.814 122.567 U 243.156 137.259 U 238.143 160.16 U 236.751 183.552 U 236.243 196.738 U 227.544 216.657 U 215.126 233.628 U 199.319 265.128 U 191.917 281.852 U 173.259 307.472 U 178.55 315.269 U 186.069 294.662 U 191.36 292.434 U 191.36 298.004 U 198.043 304.409 U 197.208 294.662 U 205.562 291.877 U 202.22 284.916 U 212.245 286.865 U 214.473 292.991 U 217.258 285.751 U 227.004 277.118 U 228.118 289.093 U 232.295 306.915 U 244.826 294.941 U 266.826 294.662 U 272.117 302.181 U 285.483 305.244 U 314.166 279.346 U 330.596 279.068 U 322.614 243.532 1@7475e566" style="stroke: rgb(255, 0, 0);"/>
    <path d="M 243.07500000000002 108.60166666666667 C 243.04700000000003 107.75933333333334 242.99099999999999 106.07466666666666 242.74766666666667 104.61466666666666 C 242.50433333333334 103.15466666666667 242.07366666666667 101.91933333333333 241.7555 100.56233333333334 C 241.43733333333333 99.20533333333333 241.23166666666668 97.72666666666667 240.95733333333337 96.58816666666667 C 240.683 95.44966666666666 240.34 94.65133333333334 240.9201666666667 93.52833333333332 C 241.50033333333332 92.40533333333333 243.00366666666665 90.95766666666667 243.78333333333333 90.37433333333333 C 244.56300000000002 89.791 244.619 90.072 244.68450000000004 90.90499999999999 C 244.75 91.738 244.82500000000002 93.12299999999999 244.93416666666667 93.60066666666667 C 245.04333333333332 94.07833333333333 245.1866666666667 93.64866666666666 245.38316666666665 93.60183333333333 C 245.57966666666667 93.55499999999999 245.82933333333335 93.891 245.97283333333334 93.59100000000001 C 246.11633333333336 93.291 246.15366666666668 92.355 246.3116666666667 90.9775 C 246.46966666666665 89.60000000000001 246.74833333333333 87.781 247.1695 87.95883333333335 C 247.59066666666664 88.13666666666667 248.1543333333333 90.31133333333334 248.71916666666664 91.32966666666668 C 249.284 92.348 249.85 92.21 250.3646666666667 92.34100000000001 C 250.87933333333334 92.472 251.34266666666667 92.872 251.69033333333334 93.06366666666668 C 252.038 93.25533333333334 252.27 93.23866666666667 252.52266666666665 93.21999999999998 C 252.77533333333335 93.20133333333332 253.04866666666666 93.18066666666665 252.60933333333332 91.84633333333333 C 252.17 90.512 251.01800000000003 87.86399999999999 251.33633333333333 87.79849999999999 C 251.65466666666669 87.73299999999999 253.44333333333336 90.25 254.57283333333336 91.45266666666667 C 255.7023333333333 92.65533333333333 256.17266666666666 92.54366666666665 256.64983333333333 92.62783333333334 C 257.127 92.712 257.61100000000005 92.992 257.945 93.08283333333334 C 258.279 93.17366666666668 258.463 93.07533333333333 258.6055 92.96416666666666 C 258.748 92.85300000000001 258.849 92.729 258.81899999999996 91.55533333333335 C 258.789 90.38166666666666 258.628 88.15833333333335 258.89733333333334 87.73616666666668 C 259.1666666666667 87.31400000000001 259.86633333333333 88.693 260.23483333333326 89.79416666666667 C 260.6033333333333 90.89533333333334 260.6406666666667 91.71866666666666 260.84566666666666 91.79066666666667 C 261.0506666666667 91.86266666666667 261.42333333333335 91.18333333333334 261.7721666666667 90.3805 C 262.12100000000004 89.57766666666667 262.44599999999997 88.65133333333334 262.737 89.18766666666666 C 263.028 89.72399999999999 263.285 91.723 263.3105 92.02999999999999 C 263.33599999999996 92.33699999999999 263.12999999999994 90.952 263.0643333333333 90.12783333333333 C 262.9986666666667 89.30366666666667 263.0733333333333 89.04033333333332 263.2418333333333 89.48016666666666 C 263.4103333333333 89.92 263.67266666666666 91.063 264.132 90.99316666666668 C 264.59133333333335 90.92333333333333 265.24766666666665 89.64066666666668 265.61266666666666 89.35983333333333 C 265.97766666666666 89.07900000000001 266.05133333333333 89.8 265.95133333333337 90.45683333333334 C 265.85133333333334 91.11366666666667 265.57766666666663 91.70633333333335 265.518 92.334 C 265.4583333333333 92.96166666666666 265.61266666666666 93.62433333333335 265.815 94.55399999999999 C 266.0173333333333 95.48366666666668 266.2676666666666 96.68033333333334 266.549 97.84583333333332 C 266.83033333333333 99.01133333333333 267.1426666666666 100.14566666666667 267.3875 100.55833333333334 C 267.6323333333333 100.971 267.8096666666667 100.66199999999999 267.99016666666665 100.394 C 268.1706666666667 100.12599999999999 268.3543333333334 99.899 268.6616666666667 99.5705 C 268.969 99.242 269.40000000000003 98.81200000000001 270.00466666666665 98.05150000000002 C 270.6093333333333 97.291 271.3876666666667 96.2 272.4671666666666 95.67866666666667 C 273.5466666666667 95.15733333333333 274.9273333333333 95.20566666666667 275.87449999999995 95.7045 C 276.82166666666666 96.20333333333333 277.3353333333333 97.15266666666668 277.414 98.28216666666667 C 277.49266666666665 99.41166666666668 277.1363333333333 100.72133333333333 276.717 101.53533333333333 C 276.29766666666666 102.34933333333333 275.81533333333334 102.66766666666668 275.24666666666667 103.21066666666667 C 274.67800000000005 103.75366666666667 274.02299999999997 104.52133333333335 273.396 105.14833333333335 C 272.769 105.77533333333334 272.17 106.26166666666667 271.56166666666667 106.59850000000002 C 270.9533333333334 106.93533333333335 270.33566666666667 107.12266666666666 269.5683333333334 107.80583333333334 C 268.801 108.48899999999999 267.884 109.668 266.7985 110.83783333333332 C 265.71299999999997 112.00766666666665 264.459 113.16833333333334 263.1488333333333 114.34750000000001 C 261.83866666666665 115.52666666666666 260.4723333333333 116.72433333333333 259.13399999999996 117.44483333333334 C 257.79566666666665 118.16533333333332 256.48533333333336 118.40866666666666 255.53083333333333 118.53966666666666 C 254.57633333333334 118.67066666666666 253.97766666666666 118.68933333333332 252.88283333333334 118.10916666666668 C 251.788 117.529 250.197 116.35000000000001 248.7558333333333 115.31133333333334 C 247.31466666666665 114.27266666666667 246.0233333333333 113.37433333333333 245.1061666666667 112.41983333333333 C 244.189 111.46533333333333 243.646 110.45466666666668 243.3745 109.94933333333331 C 243.10299999999998 109.444 243.10299999999998 109.444 243.10300000000004 109.444 C 243.10299999999998 109.444 243.10299999999998 109.444 243.07500000000002 108.60166666666667" bx:d="M 243.103 109.444 U 242.935 104.39 U 241.643 100.684 U 241.026 96.248 U 239.997 93.853 U 244.507 89.51 U 244.675 90.353 U 244.9 94.508 U 245.33 93.219 U 246.079 94.227 U 246.191 91.419 U 247.027 85.962 U 248.718 92.486 U 250.416 92.072 U 251.806 93.272 U 252.502 93.222 U 253.322 93.16 U 249.866 85.216 U 255.232 92.767 U 256.643 92.432 U 258.095 93.272 U 258.647 92.977 U 258.95 92.605 U 258.467 85.935 U 260.566 90.072 U 260.678 92.542 U 261.796 90.504 U 262.771 87.725 U 263.542 93.722 U 262.924 89.567 U 263.148 88.777 U 263.935 92.206 U 265.904 88.358 U 266.125 90.521 U 265.304 92.299 U 265.767 94.287 U 266.518 97.877 U 267.455 101.28 U 267.987 100.353 U 268.538 99.672 U 269.831 98.382 U 272.166 95.109 U 276.308 95.254 U 277.849 98.102 U 276.78 102.031 U 275.333 102.986 U 273.368 105.289 U 271.571 106.748 U 269.718 107.31 U 266.967 110.847 U 263.205 114.329 U 259.106 117.922 U 255.175 118.652 U 253.379 118.708 U 248.606 115.171 U 244.732 112.476 U 243.103 109.444 U 243.103 109.444 Z 1@ed2e5f0d" style="fill: rgb(250, 238, 209);">
      <title>Wajah</title>
    </path>
    <path d="M 276.01483333333334 108.68950000000001 C 277.6856666666667 108.73599999999999 281.0273333333334 108.829 278.93 109.25750000000001 C 276.8326666666667 109.68599999999999 269.29633333333334 110.45 268.1825 112.44566666666667 C 267.0686666666666 114.44133333333333 272.3773333333333 117.66866666666665 273.6856666666667 120.11766666666666 C 274.99399999999997 122.56666666666666 272.30199999999996 124.23733333333332 270.39916666666664 128.08950000000002 C 268.4963333333333 131.94166666666666 267.3826666666667 137.97533333333334 267.1506666666667 150.1353333333333 C 266.9186666666667 162.29533333333333 267.5683333333333 180.58166666666668 269.93533333333335 188.843 C 272.30233333333337 197.10433333333333 276.3866666666667 195.34066666666664 280.146 197.754 C 283.9053333333333 200.16733333333332 287.3396666666667 206.75766666666667 290.8205 215.85433333333333 C 294.30133333333333 224.95100000000002 297.82866666666666 236.554 302.93399999999997 246.20766666666668 C 308.03933333333333 255.86133333333336 314.72266666666667 263.5656666666667 316.8111666666667 263.65849999999995 C 318.8996666666667 263.7513333333333 316.3933333333334 256.23266666666666 315.88283333333334 252.7055 C 315.3723333333333 249.1783333333333 316.8576666666667 249.64266666666666 318.8535 251.17433333333335 C 320.84933333333333 252.706 323.35566666666665 255.30499999999998 324.3766666666667 258.925 C 325.3976666666667 262.545 324.93333333333334 267.186 322.79833333333335 275.8186666666667 C 320.66333333333336 284.45133333333337 316.8576666666667 297.0756666666667 315.51183333333336 303.61983333333336 C 314.166 310.164 315.28000000000003 310.628 318.90016666666673 308.95716666666664 C 322.5203333333333 307.2863333333333 328.6466666666667 303.48066666666665 332.3131666666667 300.97433333333333 C 335.9796666666667 298.468 337.1863333333333 297.26099999999997 337.5111666666666 295.358 C 337.83599999999996 293.455 337.279 290.856 337.78950000000003 290.43833333333333 C 338.3 290.02066666666667 339.878 291.78433333333334 340.7135 290.34566666666666 C 341.549 288.907 341.642 284.266 339.83200000000005 277.165 C 338.022 270.064 334.309 260.503 327.7293333333334 242.525 C 321.1496666666667 224.54700000000003 311.7033333333333 198.15200000000002 304.36449999999996 176.92550000000003 C 297.02566666666667 155.69899999999998 291.7943333333333 139.641 287.1421666666667 129.12199999999999 C 282.49 118.603 278.417 113.623 276.3805 111.133 C 274.344 108.64299999999999 274.344 108.64299999999999 274.344 108.64300000000001 C 274.344 108.64299999999999 274.344 108.64299999999999 276.01483333333334 108.68950000000001" bx:d="M 274.344 108.643 U 284.369 108.922 U 261.76 111.214 U 277.686 120.896 U 269.61 125.908 U 266.269 144.009 U 268.218 198.868 U 280.471 193.577 U 290.774 213.348 U 301.356 248.157 U 321.406 271.27 U 313.887 248.714 U 318.343 250.107 U 325.862 257.904 U 324.469 271.827 U 313.052 309.7 U 316.394 311.092 U 334.773 299.675 U 338.393 296.054 U 336.722 288.257 U 341.456 293.548 U 341.735 279.625 U 330.596 250.942 U 302.257 171.757 U 286.563 123.583 U 274.344 108.643 U 274.344 108.643 Z 1@d15fd17e" style="stroke: rgb(255, 0, 0);"/>
    <path d="M 289.897 170.925 C 290.226 171.147 290.886 171.589 291.447 172.49 C 292.009 173.39 292.473 174.747 292.871 175.758 C 293.269 176.769 293.601 177.433 293.941 178.203 C 294.28 178.972 294.627 179.848 294.808 181.345 C 294.989 182.842 295.005 184.961 295.057 187.027 C 295.11 189.093 295.201 191.106 295.389 192.641 C 295.578 194.175 295.864 195.232 296.3 196.915 C 296.735 198.598 297.319 200.908 297.785 203.16 C 298.25 205.413 298.597 207.608 298.966 209.812 C 299.336 212.016 299.727 214.23 300.036 216.302 C 300.345 218.374 300.572 220.306 300.715 221.472 C 300.858 222.638 300.919 223.038 299.862 224.506 C 298.806 225.974 296.633 228.509 295.479 230.124 C 294.324 231.738 294.189 232.433 294.166 233.036 C 294.143 233.64 294.234 234.153 294.188 234.945 C 294.143 235.737 293.962 236.809 293.834 237.676 C 293.706 238.544 293.63 239.208 293.683 239.88 C 293.736 240.551 293.917 241.23 294.309 241.283 C 294.702 241.336 295.305 240.762 295.818 240.136 C 296.331 239.51 296.754 238.831 297.191 238.341 C 297.629 237.85 298.081 237.548 298.436 237.782 C 298.791 238.016 299.047 238.785 299.259 239.57 C 299.47 240.355 299.636 241.154 299.629 242.067 C 299.621 242.98 299.44 244.007 299.176 244.784 C 298.912 245.561 298.564 246.089 298.044 246.881 C 297.523 247.673 296.829 248.73 296.512 249.447 C 296.195 250.163 296.256 250.541 296.331 250.895 C 296.407 251.25 296.497 251.582 296.814 251.642 C 297.131 251.703 297.674 251.491 298.255 250.91 C 298.836 250.329 299.455 249.379 300.051 248.677 C 300.647 247.975 301.221 247.523 301.153 247.892 C 301.085 248.262 300.375 249.454 300.132 250.332 C 299.888 251.209 300.109 251.772 300.379 252.001 C 300.648 252.229 300.965 252.124 301.38 252.018 C 301.795 251.912 302.308 251.807 302.565 251.754 C 302.821 251.701 302.821 251.701 302.821 251.701 C 302.821 251.701 302.821 251.701 303.146 251.377 C 303.47 251.052 304.119 250.404 304.444 250.079 C 304.768 249.755 304.768 249.755 304.768 249.755 C 304.768 249.755 304.768 249.755 305.108 249.343 C 305.447 248.931 306.126 248.106 306.647 247.317 C 307.167 246.528 307.529 245.773 307.921 245.06 C 308.314 244.347 308.736 243.676 308.948 240.579 C 309.159 237.482 309.159 231.96 309.34 228.805 C 309.521 225.65 309.883 224.862 310.192 223.21 C 310.502 221.558 310.758 219.043 310.955 216.687 C 311.151 214.331 311.286 212.134 311.279 208.887 C 311.271 205.64 311.121 201.342 311.098 199.17 C 311.076 196.999 311.181 196.953 311.023 195.903 C 310.864 194.853 310.441 192.797 309.973 191.045 C 309.505 189.293 308.992 187.845 308.701 186.427 C 308.41 185.01 308.341 183.623 308.141 182.063 C 307.94 180.504 307.608 178.77 307.268 176.505 C 306.929 174.239 306.582 171.44 306.575 169.845 C 306.567 168.25 306.899 167.857 307.48 167.435 C 308.061 167.012 308.891 166.56 309.615 165.783 C 310.34 165.005 310.958 163.904 311.102 162.976 C 311.245 162.048 310.913 161.293 310.558 160.622 C 310.204 159.95 309.826 159.362 309.532 158.569 C 309.238 157.777 309.026 156.782 308.785 155.582 C 308.544 154.383 308.272 152.979 307.829 151.396 C 307.386 149.814 306.771 148.051 306.189 146.355 C 305.606 144.659 305.056 143.029 304.698 141.995 C 304.34 140.961 304.174 140.524 304.114 140.162 C 304.053 139.799 304.099 139.513 304.348 139.045 C 304.597 138.577 305.049 137.928 305.125 137.143 C 305.2 136.359 304.899 135.438 304.589 134.661 C 304.28 133.884 303.963 133.25 303.631 132.616 C 303.299 131.982 302.952 131.349 302.748 130.723 C 302.545 130.096 302.484 129.478 302.19 129.206 C 301.896 128.934 301.367 129.01 300.658 129.168 C 299.949 129.327 299.058 129.568 297.987 129.81 C 296.916 130.051 295.663 130.293 294.29 130.579 C 292.917 130.866 291.423 131.198 290.284 131.432 C 289.144 131.666 288.36 131.801 287.107 132.164 C 285.855 132.526 284.134 133.114 283.161 133.475 C 282.188 133.835 281.961 133.968 282.007 135.424 C 282.052 136.88 282.369 139.661 282.445 142.66 C 282.52 145.66 282.354 148.879 282.362 151.205 C 282.369 153.532 282.55 154.965 282.671 156.331 C 282.791 157.697 282.852 158.994 283.237 160.496 C 283.621 161.997 284.331 163.703 284.927 164.782 C 285.523 165.861 286.006 166.313 286.376 166.102 C 286.745 165.891 287.002 165.015 287.107 165.068 C 287.213 165.121 287.167 166.102 287.552 167.196 C 287.937 168.29 288.752 169.497 289.16 170.101 C 289.567 170.704 289.567 170.704 289.897 170.925" bx:d="M 289.567 170.704 U 291.545 172.032 U 292.937 176.105 U 293.933 178.097 U 294.974 180.723 U 295.02 187.08 U 295.291 193.119 U 296.151 196.288 U 297.903 203.218 U 298.944 209.803 U 300.119 216.443 U 300.798 222.237 U 300.979 223.439 U 294.46 231.044 U 294.053 233.127 U 294.324 234.666 U 293.781 237.88 U 293.555 239.872 U 294.098 241.909 U 295.909 240.189 U 297.176 238.152 U 298.534 237.246 U 299.304 239.555 U 299.802 241.954 U 299.259 245.033 U 298.217 246.617 U 296.135 249.786 U 296.316 250.918 U 296.588 251.914 U 298.217 251.28 U 300.074 248.428 U 301.794 247.07 U 299.666 250.646 U 300.331 252.335 U 301.282 252.018 U 302.821 251.701 U 302.821 251.701 U 302.821 251.701 U 304.768 249.755 U 304.768 249.755 U 304.768 249.755 U 306.805 247.282 U 307.891 245.019 U 309.159 243.004 U 309.159 226.438 U 310.245 224.074 U 311.015 216.527 U 311.422 209.938 U 310.97 197.044 U 311.287 196.908 U 310.018 190.742 U 308.479 186.396 U 308.272 182.237 U 307.276 177.037 U 306.235 168.642 U 307.231 167.465 U 309.721 166.107 U 311.577 162.802 U 310.581 160.539 U 309.449 158.773 U 308.815 155.786 U 308.001 151.576 U 306.156 146.289 U 304.506 141.399 U 304.008 140.086 U 304.144 139.226 U 305.502 137.279 U 304.597 134.518 U 303.646 132.616 U 302.605 130.715 U 302.424 128.859 U 300.839 129.085 U 298.168 129.81 U 294.411 130.534 U 289.929 131.53 U 287.575 131.937 U 282.414 133.703 U 281.735 134.1 U 282.686 142.441 U 282.188 152.098 U 282.731 156.399 U 282.912 160.292 U 285.04 165.408 U 286.489 166.766 U 287.258 164.14 U 287.122 167.083 U 289.567 170.704 Z 1@58b1d45a" style="fill: rgb(243, 228, 190);"/>
    <path d="M 275.1693333333333 119.54733333333333 C 274.49466666666666 119.12566666666665 273.1453333333333 118.28233333333333 272.2008333333333 116.9328333333333 C 271.2563333333333 115.58333333333333 270.7166666666667 113.72766666666666 270.2701666666667 111.827 C 269.82366666666667 109.92633333333333 269.4703333333334 107.98066666666666 268.96366666666665 107.633 C 268.45700000000005 107.28533333333333 267.797 108.53566666666666 266.92833333333334 109.73333333333333 C 266.05966666666666 110.931 264.9823333333333 112.07600000000001 263.8003333333333 113.08766666666668 C 262.61833333333334 114.09933333333333 261.33166666666665 114.97766666666666 259.3581666666667 115.68316666666665 C 257.38466666666665 116.38866666666667 254.72433333333333 116.92133333333334 253.24183333333335 117.67433333333334 C 251.75933333333333 118.42733333333332 251.45466666666667 119.40066666666667 251.2685 120.61266666666666 C 251.08233333333337 121.82466666666666 251.01466666666667 123.27533333333334 251.0146666666667 124.6585 C 251.01466666666667 126.04166666666667 251.08233333333337 127.35733333333333 251.40283333333332 128.63933333333333 C 251.72333333333336 129.92133333333334 252.29666666666665 131.16966666666667 253.03883333333337 132.24916666666667 C 253.78100000000003 133.32866666666666 254.692 134.23933333333335 255.46800000000005 135.049 C 256.24399999999997 135.85866666666666 256.885 136.56733333333332 256.9861666666667 137.3265 C 257.08733333333333 138.0856666666667 256.64866666666666 138.89533333333335 255.451 139.14833333333334 C 254.25333333333333 139.40133333333335 252.29666666666665 139.09766666666667 251.369 139.23250000000002 C 250.44133333333335 139.36733333333333 250.5426666666667 139.94066666666666 250.99816666666666 140.93583333333333 C 251.45366666666666 141.931 252.26333333333332 143.34799999999998 253.3596666666667 145.0855 C 254.456 146.82299999999998 255.83899999999997 148.881 257.12083333333334 150.50033333333332 C 258.4026666666667 152.11966666666666 259.5833333333333 153.30033333333333 260.27500000000003 153.63766666666666 C 260.9666666666667 153.975 261.1693333333333 153.469 261.70916666666665 152.44 C 262.249 151.41099999999997 263.126 149.859 264.1886666666667 148.2228333333333 C 265.2513333333333 146.58666666666667 266.49966666666666 144.8663333333333 267.613 143.5 C 268.72633333333334 142.13366666666664 269.7046666666667 141.12133333333335 269.89016666666663 140.54783333333333 C 270.0756666666667 139.97433333333333 269.4683333333333 139.83966666666666 268.473 139.806 C 267.47766666666666 139.77233333333334 266.09433333333334 139.83966666666666 264.74483333333336 139.77216666666666 C 263.3953333333333 139.70466666666667 262.0796666666667 139.50233333333335 261.40500000000003 139.21550000000002 C 260.73033333333336 138.9286666666667 260.69666666666666 138.55733333333333 261.11850000000004 137.74766666666667 C 261.54033333333336 136.93800000000002 262.41766666666666 135.69000000000003 263.61533333333335 134.30683333333334 C 264.81300000000005 132.92366666666666 266.33099999999996 131.40533333333335 267.87916666666666 129.95583333333335 C 269.4273333333333 128.50633333333334 271.0056666666667 127.12566666666667 272.33816666666667 125.47266666666667 C 273.67066666666665 123.81966666666666 274.7573333333333 121.89433333333334 275.3006666666667 120.93166666666666 C 275.844 119.969 275.844 119.969 275.844 119.96900000000001 C 275.844 119.969 275.844 119.969 275.1693333333333 119.54733333333333" bx:d="M 275.844 119.969 U 271.796 117.439 U 270.177 111.872 U 269.117 106.035 U 267.137 109.786 U 263.905 113.221 U 260.045 115.856 U 252.064 117.454 U 251.15 120.374 U 250.947 124.726 U 251.15 128.673 U 252.87 132.418 U 255.603 135.15 U 257.526 137.276 U 256.21 139.705 U 250.34 138.794 U 250.644 140.514 U 253.073 144.765 U 257.222 150.939 U 260.764 154.481 U 261.372 152.963 U 264.003 148.307 U 267.748 143.146 U 270.683 140.109 U 268.861 139.705 U 264.711 139.907 U 260.764 139.3 U 260.663 138.186 U 263.295 134.442 U 267.849 129.887 U 272.584 125.745 U 275.844 119.969 U 275.844 119.969 Z 1@6466f671" style="fill: rgb(248, 245, 205);"/>
    <path d="M 240.1505 95.36216666666667 C 240.05100000000002 95.59033333333333 239.852 96.04666666666667 239.569 96.1735 C 239.28599999999997 96.30033333333334 238.91899999999998 96.09766666666667 238.71016666666665 95.87616666666666 C 238.50133333333335 95.65466666666667 238.45066666666665 95.41433333333333 238.3495 95.12333333333333 C 238.24833333333333 94.83233333333334 238.09666666666666 94.49066666666666 237.76766666666666 94.64883333333334 C 237.43866666666668 94.807 236.93233333333333 95.46499999999999 236.18516666666665 96.58566666666667 C 235.438 97.70633333333335 234.44999999999996 99.28966666666668 234.2348333333333 98.7835 C 234.01966666666667 98.27733333333333 234.5773333333333 95.68166666666667 234.95749999999998 93.79066666666667 C 235.33766666666665 91.89966666666668 235.54033333333334 90.71333333333332 235.72383333333332 89.82283333333334 C 235.90733333333333 88.93233333333335 236.07166666666663 88.33766666666666 236.00833333333333 88.053 C 235.94500000000002 87.76833333333333 235.654 87.79366666666665 234.65083333333337 88.56150000000001 C 233.64766666666665 89.32933333333334 231.93233333333333 90.83966666666667 231.3185 90.884 C 230.70466666666667 90.92833333333333 231.19233333333332 89.50666666666666 231.45450000000002 88.34983333333332 C 231.71666666666667 87.193 231.75333333333333 86.301 232.24699999999999 85.472 C 232.74066666666667 84.64300000000001 233.69133333333332 83.87700000000001 233.01649999999998 83.75750000000001 C 232.34166666666667 83.63799999999999 230.04133333333334 84.165 229.71883333333335 84.04599999999999 C 229.39633333333336 83.927 231.05166666666665 83.16199999999999 231.8793333333333 82.7795 C 232.707 82.397 232.707 82.397 232.611 82.55683333333333 C 232.515 82.71666666666667 232.323 83.03633333333333 232.46866666666665 82.9225 C 232.61433333333332 82.80866666666667 233.09766666666667 82.26133333333333 233.53533333333334 81.77883333333334 C 233.97299999999998 81.29633333333334 234.365 80.87866666666666 234.91549999999998 80.6445 C 235.466 80.41033333333333 236.17499999999998 80.35966666666667 236.51683333333332 80.11916666666667 C 236.85866666666666 79.87866666666666 236.83333333333334 79.44833333333334 236.65616666666665 79.10666666666667 C 236.479 78.765 236.15 78.512 235.6436666666667 78.24 C 235.13733333333334 77.968 234.45366666666666 77.677 234.01066666666668 77.20866666666667 C 233.56766666666667 76.74033333333334 233.36533333333333 76.09466666666667 233.50466666666668 75.7845 C 233.644 75.47433333333333 234.125 75.49966666666667 234.17566666666667 74.94133333333333 C 234.22633333333332 74.383 233.84666666666666 73.241 233.92883333333336 72.95633333333335 C 234.011 72.67166666666667 234.55499999999998 73.24433333333333 235.27633333333335 73.82166666666666 C 235.99766666666665 74.399 236.89633333333333 74.981 237.97833333333332 75.34166666666667 C 239.06033333333335 75.70233333333333 240.32566666666665 75.84166666666665 241.38233333333335 75.72149999999999 C 242.439 75.60133333333333 243.287 75.22166666666666 244.17299999999997 74.77233333333334 C 245.059 74.323 245.98300000000003 73.80399999999999 246.755 73.36099999999999 C 247.52700000000002 72.91799999999999 248.14700000000002 72.551 248.41899999999998 71.92466666666665 C 248.691 71.29833333333333 248.615 70.41266666666667 248.86183333333335 69.85583333333334 C 249.10866666666666 69.29899999999999 249.6783333333333 69.07100000000001 250.14666666666665 69.09633333333333 C 250.615 69.12166666666667 250.98199999999997 69.40033333333334 251.564 69.74216666666668 C 252.146 70.084 252.94299999999998 70.489 253.914 70.72083333333333 C 254.885 70.95266666666667 256.03000000000003 71.01133333333333 257.3871666666667 71.14183333333334 C 258.7443333333333 71.27233333333334 260.3136666666667 71.47466666666666 261.73116666666664 71.67083333333333 C 263.14866666666666 71.867 264.41433333333333 72.057 265.7051666666667 72.35433333333334 C 266.99600000000004 72.65166666666666 268.31199999999995 73.05633333333333 269.6976666666667 73.62566666666667 C 271.0833333333333 74.195 272.53866666666664 74.92899999999999 273.89283333333333 75.96683333333333 C 275.247 77.00466666666667 276.5 78.34633333333333 277.5958333333333 80.07683333333334 C 278.69166666666666 81.80733333333335 279.63033333333334 83.92666666666668 280.1756666666667 85.85316666666667 C 280.721 87.77966666666667 280.873 89.51333333333334 280.873 91.1965 C 280.873 92.87966666666667 280.721 94.51233333333333 280.56916666666666 96.26533333333333 C 280.4173333333333 98.01833333333333 280.2656666666667 99.89166666666667 280.34166666666664 101.07516666666668 C 280.41766666666666 102.25866666666667 280.72133333333335 102.75233333333334 280.8541666666667 103.13833333333334 C 280.987 103.52433333333333 280.949 103.80266666666667 280.74649999999997 103.99883333333334 C 280.54400000000004 104.19500000000001 280.17699999999996 104.30900000000001 280.0315 104.676 C 279.886 105.043 279.962 105.66300000000001 279.89866666666666 106.00466666666667 C 279.8353333333334 106.34633333333333 279.6326666666667 106.40966666666667 279.31 106.25783333333332 C 278.9873333333333 106.106 278.54466666666667 105.73899999999999 278.2726666666667 105.91616666666668 C 278.00066666666663 106.09333333333332 277.89933333333335 106.81466666666667 277.7221666666666 106.92216666666666 C 277.545 107.02966666666667 277.292 106.52333333333333 277.20966666666664 106.58016666666667 C 277.1273333333333 106.637 277.21566666666666 107.25699999999999 277.127 107.66833333333334 C 277.03833333333336 108.07966666666665 276.7726666666667 108.28233333333333 276.60816666666665 108.757 C 276.4436666666667 109.23166666666667 276.38033333333334 109.97833333333334 276.3296666666667 110.12383333333332 C 276.279 110.26933333333334 276.241 109.81366666666668 276.12716666666665 109.45933333333335 C 276.0133333333333 109.105 275.82366666666667 108.85200000000002 275.6528333333333 108.59266666666667 C 275.482 108.33333333333333 275.33 108.06766666666668 275.8205 108.64033333333333 C 276.311 109.21300000000001 277.444 110.62400000000001 277.25416666666666 110.95933333333333 C 277.0643333333333 111.29466666666667 275.5516666666667 110.55433333333333 274.66883333333334 110.34233333333333 C 273.786 110.13033333333333 273.53299999999996 110.44666666666667 273.8111666666667 110.54416666666667 C 274.08933333333334 110.64166666666667 274.89866666666666 110.52033333333334 274.4061666666667 110.78033333333333 C 273.91366666666664 111.04033333333332 272.1193333333333 111.68166666666666 270.92400000000004 111.52333333333333 C 269.72866666666664 111.365 269.1323333333333 110.407 269.2046666666667 109.4015 C 269.277 108.396 270.01800000000003 107.343 271.0555 106.52633333333334 C 272.093 105.70966666666668 273.427 105.12933333333335 274.32166666666666 104.42783333333334 C 275.21633333333335 103.72633333333334 275.6716666666667 102.90366666666667 276.09549999999996 102.20133333333335 C 276.51933333333335 101.49900000000001 276.91166666666663 100.91699999999999 277.1838333333333 100.23366666666668 C 277.45599999999996 99.55033333333331 277.608 98.76566666666666 277.36133333333333 98.01266666666665 C 277.11466666666666 97.25966666666666 276.46933333333334 96.53833333333334 275.73533333333336 96.04483333333333 C 275.0013333333333 95.55133333333333 274.1786666666667 95.28566666666666 273.27383333333336 95.48816666666666 C 272.36899999999997 95.69066666666667 271.382 96.36133333333333 270.4771666666666 97.43066666666665 C 269.57233333333335 98.5 268.74966666666666 99.968 268.20550000000003 100.76533333333333 C 267.66133333333335 101.56266666666666 267.39566666666667 101.68933333333332 267.18683333333337 101.21466666666667 C 266.978 100.74000000000001 266.82599999999996 99.66399999999999 266.65500000000003 98.69583333333333 C 266.484 97.72766666666666 266.294 96.86733333333332 266.003 95.89933333333333 C 265.712 94.93133333333333 265.32 93.85566666666666 265.11133333333333 93.07100000000001 C 264.9026666666667 92.28633333333335 264.8773333333333 91.79266666666668 265.04816666666665 91.30533333333334 C 265.219 90.818 265.58599999999996 90.33699999999999 265.7883333333333 90.008 C 265.99066666666664 89.67899999999999 266.0283333333333 89.502 265.7181666666666 89.71083333333333 C 265.40799999999996 89.91966666666667 264.75 90.51433333333334 264.1995 91.17866666666667 C 263.64899999999994 91.843 263.20599999999996 92.577 263.0225 92.48216666666667 C 262.839 92.38733333333334 262.91499999999996 91.46366666666667 262.9213333333333 90.61583333333334 C 262.92766666666665 89.76800000000001 262.8643333333333 88.996 262.7315 89.09716666666668 C 262.5986666666667 89.19833333333334 262.39633333333336 90.17266666666667 262.1433333333334 90.84966666666666 C 261.89033333333333 91.52666666666669 261.58666666666664 91.90633333333334 261.3081666666667 92.09616666666666 C 261.0296666666667 92.286 260.77633333333335 92.286 260.6308333333333 91.72916666666667 C 260.48533333333336 91.17233333333333 260.4476666666667 90.05866666666667 260.27683333333334 89.72333333333331 C 260.106 89.38799999999999 259.80199999999996 89.831 259.6185 89.74883333333332 C 259.435 89.66666666666667 259.372 89.05933333333333 259.2898333333333 88.58483333333334 C 259.2076666666667 88.11033333333334 259.10633333333334 87.76866666666668 259.06199999999995 88.433 C 259.0176666666667 89.09733333333334 259.0303333333333 90.76766666666667 259.0366666666667 91.73566666666666 C 259.043 92.70366666666666 259.043 92.96933333333334 258.6 93.05166666666666 C 258.157 93.134 257.271 93.033 256.2585 92.666 C 255.24599999999998 92.29899999999999 254.10699999999997 91.666 253.2085 90.72950000000002 C 252.30999999999997 89.793 251.65200000000002 88.553 251.38 88.14800000000001 C 251.10800000000003 87.743 251.222 88.173 251.53833333333333 88.95116666666667 C 251.8546666666667 89.72933333333333 252.37333333333333 90.85566666666666 252.7023333333333 91.67833333333334 C 253.03133333333335 92.50099999999999 253.17066666666665 93.02 253.51566666666668 93.65800000000002 C 253.86066666666667 94.296 254.41133333333332 95.053 254.08866666666665 94.93283333333333 C 253.766 94.81266666666666 252.57000000000002 93.81533333333334 251.73783333333336 93.34816666666666 C 250.90566666666666 92.88100000000001 250.43733333333333 92.944 249.98166666666665 92.83 C 249.52599999999998 92.71600000000001 249.083 92.425 248.754 91.97583333333334 C 248.42499999999998 91.52666666666666 248.21 90.91933333333333 248.00749999999996 90.33083333333333 C 247.80499999999998 89.74233333333332 247.615 89.17266666666666 247.3745 89.00183333333332 C 247.13400000000001 88.831 246.843 89.05900000000001 246.6341666666667 90.03983333333333 C 246.42533333333333 91.02066666666667 246.29866666666666 92.75433333333335 246.07716666666667 94.3085 C 245.85566666666668 95.86266666666666 245.53933333333336 97.23733333333332 245.21033333333335 97.08549999999998 C 244.88133333333334 96.93366666666667 244.53966666666668 95.25533333333333 244.34350000000003 94.1315 C 244.14733333333334 93.00766666666668 244.09666666666666 92.43833333333333 244.15366666666668 91.90683333333334 C 244.21066666666664 91.37533333333333 244.37533333333332 90.88166666666666 244.45766666666665 90.47666666666667 C 244.54 90.07166666666667 244.54 89.75533333333333 244.16033333333334 90.021 C 243.78066666666666 90.28666666666668 243.02133333333333 91.13433333333334 242.30633333333333 92.0835 C 241.59133333333332 93.03266666666667 240.92066666666665 94.08333333333333 240.58533333333332 94.60866666666668 C 240.25 95.134 240.25 95.134 240.1505 95.36216666666667" bx:d="M 240.25 95.134 U 239.653 96.503 U 238.552 95.895 U 238.4 95.174 U 237.945 94.149 U 236.426 96.123 U 233.462 100.873 U 235.135 93.086 U 235.743 89.527 U 236.236 87.743 U 235.363 87.819 U 230.217 92.35 U 231.68 88.085 U 231.79 85.409 U 234.642 83.111 U 227.741 84.692 U 232.707 82.397 U 232.707 82.397 U 232.131 83.356 U 233.581 81.714 U 234.757 80.461 U 236.884 80.309 U 236.808 79.018 U 235.821 78.259 U 233.77 77.386 U 233.163 75.449 U 234.606 75.525 U 233.467 72.099 U 235.099 73.817 U 237.795 75.563 U 241.591 75.981 U 244.135 74.842 U 246.907 73.285 U 248.767 72.184 U 248.539 69.527 U 250.248 68.843 U 251.349 69.679 U 253.74 70.894 U 257.175 71.07 U 261.883 71.677 U 265.68 72.247 U 269.628 73.461 U 273.994 75.663 U 277.753 79.688 U 280.569 86.046 U 281.025 91.247 U 280.569 96.145 U 280.114 101.765 U 281.025 103.246 U 280.911 104.081 U 279.81 104.423 U 280.038 106.283 U 279.43 106.473 U 278.102 105.372 U 277.798 107.536 U 277.039 106.017 U 277.304 107.877 U 276.507 108.485 U 276.317 110.725 U 276.203 109.358 U 275.634 108.599 U 275.178 107.802 U 278.577 112.035 U 274.039 109.814 U 273.28 110.763 U 275.708 110.399 U 270.325 112.323 U 268.536 109.449 U 270.759 106.29 U 274.761 104.549 U 276.127 102.081 U 277.304 100.335 U 277.76 97.981 U 275.824 95.817 U 273.356 95.02 U 270.395 97.032 U 267.927 101.436 U 267.13 101.816 U 266.674 98.588 U 266.104 96.007 U 264.928 92.78 U 264.852 91.299 U 265.953 89.856 U 266.066 89.325 U 264.092 91.109 U 262.763 93.311 U 262.991 90.54 U 262.801 88.224 U 262.194 91.147 U 261.283 92.286 U 260.523 92.286 U 260.41 88.945 U 259.498 90.274 U 259.309 88.452 U 259.005 87.427 U 259.043 92.438 U 259.043 93.235 U 256.385 92.932 U 252.968 91.033 U 250.994 87.313 U 251.336 88.603 U 252.892 91.982 U 253.31 93.539 U 254.962 95.81 U 251.374 92.818 U 249.969 93.007 U 248.64 92.134 U 247.995 90.312 U 247.425 88.603 U 246.552 89.287 U 246.172 94.488 U 245.223 98.612 U 244.198 93.577 U 244.046 91.869 U 244.54 90.388 U 244.54 89.439 U 242.262 91.982 U 240.25 95.134 Z 1@ac6cd5d4" style=""/>
    <path d="M 228.53833333333333 139.467 C 227.98233333333334 141.74099999999999 226.50566666666668 145.768 225.46533333333335 148.78816666666668 C 224.42499999999998 151.8083333333333 223.821 153.8216666666667 223.754 155.93566666666666 C 223.687 158.04966666666667 224.157 160.26433333333333 224.79466666666667 161.87516666666667 C 225.43233333333333 163.48600000000002 226.23766666666666 164.49300000000002 226.27116666666666 165.63400000000001 C 226.30466666666666 166.775 225.56633333333335 168.04999999999998 225.23066666666668 169.5265 C 224.89499999999998 171.00300000000001 224.962 172.681 224.8613333333333 174.191 C 224.76066666666665 175.70100000000002 224.49233333333333 177.043 223.9555 178.68716666666668 C 223.41866666666667 180.3313333333333 222.61333333333332 182.27766666666665 221.808 184.22400000000002 C 221.00266666666667 186.17033333333333 220.19733333333332 188.11666666666665 219.42549999999997 191.03616666666665 C 218.65366666666668 193.95566666666664 217.91533333333334 197.84833333333336 217.1435 201.60666666666668 C 216.37166666666667 205.365 215.56633333333332 208.989 214.761 212.44533333333334 C 213.95566666666664 215.90166666666667 213.15033333333335 219.19033333333334 211.67383333333336 223.2843333333333 C 210.19733333333332 227.37833333333333 208.04966666666667 232.27766666666665 206.90866666666668 236.9085 C 205.76766666666666 241.5393333333333 205.63333333333333 245.90166666666667 205.93533333333332 248.25066666666666 C 206.23733333333334 250.59966666666665 206.97566666666668 250.93533333333335 207.51266666666666 250.3313333333333 C 208.04966666666667 249.72733333333335 208.3853333333333 248.18366666666665 208.788 246.33799999999997 C 209.19066666666666 244.49233333333333 209.66033333333334 242.34466666666665 209.7275 239.99566666666666 C 209.79466666666667 237.64666666666668 209.45933333333332 235.09633333333332 209.35866666666666 236.80766666666662 C 209.258 238.519 209.39200000000002 244.492 209.96233333333336 247.47849999999997 C 210.53266666666664 250.465 211.5393333333333 250.465 211.875 249.82750000000001 C 212.21066666666664 249.18999999999997 211.87533333333332 247.915 212.31166666666664 247.61299999999997 C 212.74799999999996 247.311 213.956 247.98199999999997 214.35866666666664 247.34433333333334 C 214.76133333333334 246.70666666666668 214.35866666666666 244.7603333333333 214.25799999999995 243.41816666666662 C 214.15733333333333 242.076 214.35866666666666 241.338 214.89549999999997 241.5393333333333 C 215.43233333333333 241.74066666666667 216.30466666666666 242.88133333333334 216.808 242.71349999999998 C 217.31133333333332 242.54566666666665 217.44566666666665 241.06933333333333 217.24433333333334 239.82783333333336 C 217.043 238.58633333333333 216.506 237.57966666666667 216.6738333333333 236.47233333333335 C 216.84166666666667 235.365 217.71433333333334 234.157 217.94933333333333 233.01600000000005 C 218.18433333333334 231.875 217.78166666666667 230.80100000000002 217.94933333333336 230.83450000000002 C 218.117 230.86800000000002 218.855 232.00900000000001 219.157 231.405 C 219.45899999999997 230.80100000000002 219.32500000000002 228.452 219.19083333333333 226.64000000000001 C 219.0566666666667 224.828 218.92233333333334 223.553 221.33833333333337 218.7543333333333 C 223.75433333333334 213.95566666666664 228.7206666666667 205.63333333333333 231.40516666666667 200.86816666666667 C 234.08966666666666 196.10299999999998 234.49233333333336 194.895 234.69366666666667 192.37833333333333 C 234.895 189.86166666666668 234.895 186.03633333333335 235.46550000000002 182.9826666666667 C 236.03600000000003 179.929 237.17700000000002 177.64700000000002 237.51266666666666 174.45900000000003 C 237.84833333333336 171.271 237.37866666666665 167.177 236.43666666666664 161.95033333333333 C 235.49466666666663 156.72366666666667 234.08033333333333 150.36433333333332 233.25549999999998 146.36066666666667 C 232.43066666666667 142.357 232.19533333333334 140.709 231.47850000000003 139.4 C 230.76166666666668 138.091 229.56333333333336 137.121 229.14650000000003 136.89650000000003 C 228.7296666666667 136.672 229.09433333333334 137.193 228.53833333333333 139.467" bx:d="M 229.459 137.714 U 225.029 149.795 U 223.217 155.835 U 224.627 162.479 U 227.043 165.5 U 224.828 169.325 U 225.029 174.359 U 224.224 178.385 U 221.808 184.224 U 219.392 190.063 U 217.177 201.741 U 214.761 212.613 U 212.345 222.479 U 205.902 237.177 U 205.499 250.264 U 207.714 251.271 U 208.721 246.64 U 210.13 240.197 U 209.124 232.546 U 209.526 250.465 U 212.546 250.465 U 211.54 246.64 U 215.164 248.653 U 213.956 242.814 U 214.56 240.6 U 217.177 244.022 U 217.58 239.593 U 215.969 236.573 U 218.587 232.949 U 217.379 229.727 U 219.593 233.15 U 219.191 226.103 U 218.788 222.278 U 233.687 197.311 U 234.895 193.687 U 234.895 182.211 U 238.318 175.365 U 236.909 163.083 U 232.666 144.005 U 231.96 139.061 U 228.365 136.151 Z 1@8856b80f" style="fill: rgb(243, 228, 190);"/>
    <path d="M 245.75183333333334 114.51800000000001 C 245.00966666666667 115.14200000000001 243.52533333333335 116.39 242.39516666666665 116.98033333333335 C 241.265 117.57066666666667 240.489 117.50333333333333 240.0335 117.94200000000001 C 239.57799999999997 118.38066666666667 239.44299999999998 119.32533333333333 239.03816666666663 120.13499999999999 C 238.63333333333333 120.94466666666666 237.95866666666666 121.61933333333333 236.72733333333335 122.41216666666668 C 235.49599999999998 123.205 233.708 124.116 232.47666666666666 125.26299999999999 C 231.24533333333332 126.41000000000001 230.57066666666665 127.79299999999999 230.06466666666665 129.15916666666666 C 229.55866666666665 130.52533333333332 229.22133333333332 131.87466666666666 227.0395 136.68883333333332 C 224.85766666666666 141.50300000000001 220.83133333333333 149.782 218.83016666666666 154.23116666666667 C 216.82900000000004 158.68033333333335 216.85299999999998 159.29966666666667 219.43966666666668 156.7121666666667 C 222.02633333333333 154.12466666666668 227.17566666666667 148.33033333333333 225.82033333333334 148.92316666666667 C 224.465 149.516 216.60500000000002 156.496 217.14483333333337 158.94033333333334 C 217.68466666666666 161.38466666666667 226.62433333333334 159.29333333333332 231.39766666666665 160.05533333333332 C 236.17099999999996 160.81733333333332 236.778 164.43266666666668 237.13216666666668 167.52233333333334 C 237.4863333333333 170.612 237.58766666666665 173.17600000000002 237.70583333333335 174.79533333333333 C 237.82399999999998 176.41466666666668 237.95899999999997 177.08933333333334 238.29633333333334 178.2195 C 238.63366666666664 179.34966666666665 239.17333333333332 180.93533333333335 239.32516666666666 182.3355 C 239.477 183.73566666666667 239.24099999999999 184.95033333333333 239.35916666666665 186.19866666666667 C 239.47733333333335 187.447 239.94966666666664 188.729 240.08450000000002 189.80849999999998 C 240.21933333333334 190.888 240.01666666666665 191.765 239.7805 192.86983333333333 C 239.54433333333336 193.97466666666665 239.27466666666666 195.30733333333333 239.17350000000002 196.85083333333333 C 239.07233333333332 198.39433333333332 239.13966666666667 200.14866666666663 239.25766666666667 201.633 C 239.37566666666666 203.11733333333333 239.54433333333336 204.33166666666668 239.29133333333334 205.90599999999998 C 239.03833333333333 207.48033333333333 238.36366666666666 209.41466666666665 237.46966666666665 213.16683333333333 C 236.57566666666665 216.91899999999998 235.4623333333333 222.489 234.63583333333335 227.2301666666667 C 233.80933333333334 231.97133333333332 233.26966666666667 235.88366666666664 232.76366666666664 240.8925 C 232.25766666666664 245.90133333333333 231.78533333333334 252.00666666666666 231.86966666666663 255.82600000000002 C 231.95399999999998 259.6453333333333 232.595 261.1786666666667 233.05033333333336 264.1718333333333 C 233.50566666666666 267.165 233.77533333333335 271.618 234.06199999999998 274.4891666666667 C 234.34866666666665 277.36033333333336 234.65233333333333 278.6496666666667 233.9128333333333 282.23966666666666 C 233.17333333333332 285.8296666666667 231.39066666666668 291.7203333333334 232.5095 293.2828333333334 C 233.62833333333333 294.8453333333334 237.64866666666668 292.0796666666667 240.95600000000002 288.40250000000003 C 244.26333333333332 284.72533333333337 246.85766666666666 280.1366666666667 247.69216666666668 281.9886666666667 C 248.52666666666664 283.84066666666666 247.60133333333332 292.1333333333333 249.77216666666664 296.888 C 251.94299999999998 301.6426666666667 257.21 302.8593333333333 260.7535 297.9395 C 264.29699999999997 293.01966666666664 266.117 281.9633333333333 268.8288333333333 281.93016666666665 C 271.5406666666667 281.897 275.14433333333335 292.887 281.5626666666667 297.6571666666667 C 287.981 302.42733333333337 297.214 300.97766666666666 301.88100000000003 295.83383333333336 C 306.548 290.69 306.649 281.85200000000003 305.04016666666666 276.7266666666667 C 303.4313333333333 271.60133333333334 300.11266666666666 270.1886666666667 298.87516666666664 269.14483333333334 C 297.6376666666667 268.101 298.48133333333334 267.426 298.88616666666667 265.75600000000003 C 299.291 264.08599999999996 299.257 261.421 299.20633333333336 259.1608333333333 C 299.1556666666667 256.90066666666667 299.08833333333337 255.04533333333333 298.8016666666667 252.279 C 298.51500000000004 249.51266666666666 298.009 245.83533333333332 296.876 240.77349999999998 C 295.743 235.71166666666667 293.983 229.2653333333333 292.597 224.2878333333333 C 291.211 219.31033333333335 290.199 215.80166666666665 289.5251666666667 212.92 C 288.85133333333334 210.03833333333333 288.5156666666667 207.78366666666668 288.19616666666667 204.7915 C 287.87666666666667 201.79933333333335 287.5733333333333 198.06966666666668 287.253 194.386 C 286.93266666666665 190.7023333333333 286.5953333333333 187.06466666666665 286.62899999999996 183.40716666666665 C 286.66266666666667 179.74966666666668 287.06733333333335 176.07233333333332 287.18533333333335 173.08666666666667 C 287.30333333333334 170.101 287.13466666666665 167.80700000000002 291.2155 167.69 C 295.29633333333334 167.573 303.62666666666667 169.633 308.21116666666666 168.07216666666667 C 312.79566666666665 166.51133333333334 313.63433333333336 161.32966666666667 311.4015 153.41266666666667 C 309.1686666666667 145.49566666666666 303.8643333333334 134.84333333333333 298.5545 131.06966666666668 C 293.24466666666666 127.296 287.9293333333333 130.40099999999998 286.73583333333335 131.33633333333333 C 285.5423333333333 132.27166666666668 288.47066666666666 131.03733333333332 294.25 136.67616666666666 C 300.02933333333334 142.315 308.6596666666667 154.827 310.4678333333334 154.68516666666667 C 312.276 154.54333333333332 307.262 141.74766666666667 304.2828333333333 134.89433333333332 C 301.3036666666667 128.041 300.3593333333333 127.13 299.07750000000004 126.10383333333333 C 297.7956666666667 125.07766666666667 296.17633333333333 123.93633333333332 295.4678333333333 123.02833333333332 C 294.75933333333336 122.12033333333333 294.96166666666664 121.44566666666667 294.5061666666667 120.83833333333332 C 294.0506666666667 120.231 292.93733333333336 119.69099999999999 292.70116666666667 118.99933333333333 C 292.465 118.30766666666666 293.106 117.46433333333333 293.10600000000005 116.80649999999999 C 293.106 116.14866666666666 292.465 115.67633333333333 291.5203333333333 115.5245 C 290.5756666666667 115.37266666666666 289.32733333333334 115.54133333333333 288.19716666666665 115.30516666666666 C 287.067 115.069 286.055 114.428 284.3681666666667 113.75333333333334 C 282.6813333333334 113.07866666666666 280.3196666666667 112.37033333333333 278.0593333333333 111.83066666666667 C 275.79900000000004 111.29100000000001 273.64000000000004 110.92 272.47616666666664 111.32483333333334 C 271.31233333333336 111.72966666666667 271.14366666666666 112.91033333333333 271.31233333333336 113.973 C 271.481 115.03566666666666 271.987 115.98033333333332 272.9148333333333 116.99233333333332 C 273.8426666666667 118.00433333333332 275.19233333333335 119.08366666666666 275.41166666666663 120.09566666666666 C 275.63100000000003 121.10766666666666 274.72 122.05233333333332 273.5055 123.36816666666665 C 272.291 124.68400000000001 270.77299999999997 126.371 269.0018333333333 128.412 C 267.23066666666665 130.453 265.20633333333336 132.84799999999998 263.8061666666667 134.58533333333332 C 262.406 136.32266666666666 261.63 137.40233333333333 261.78183333333334 138.11083333333335 C 261.9336666666666 138.81933333333333 263.0133333333333 139.15666666666667 264.29533333333336 139.24099999999999 C 265.57733333333334 139.32533333333333 267.06166666666667 139.15666666666667 268.293 139.27483333333333 C 269.52433333333335 139.393 270.5026666666667 139.798 270.31716666666665 140.62449999999998 C 270.13166666666666 141.451 268.7823333333333 142.69899999999998 267.06183333333337 144.993 C 265.34133333333335 147.287 263.24966666666666 150.627 261.86650000000003 152.2295 C 260.48333333333335 153.83200000000002 259.8086666666667 153.697 258.864 152.87050000000002 C 257.9193333333333 152.044 256.7046666666667 150.526 255.79383333333337 149.36216666666667 C 254.883 148.19833333333335 254.27599999999998 147.3886666666667 253.58450000000002 146.2415 C 252.89300000000003 145.09433333333334 252.117 143.60966666666667 251.61083333333337 142.2095 C 251.1046666666667 140.80933333333334 250.86833333333334 139.49366666666666 251.18883333333338 138.98766666666666 C 251.50933333333333 138.48166666666665 252.38666666666668 138.78533333333334 253.2301666666667 139.07216666666667 C 254.07366666666667 139.359 254.88333333333335 139.629 255.558 139.24099999999999 C 256.2326666666667 138.85299999999998 256.77233333333334 137.807 256.435 136.74433333333334 C 256.09766666666667 135.68166666666664 254.88333333333335 134.60233333333335 253.80383333333336 133.3373333333333 C 252.72433333333333 132.07233333333332 251.77966666666669 130.62166666666667 251.341 129.00233333333333 C 250.90233333333333 127.383 250.96966666666665 125.59499999999998 251.00333333333333 124.11066666666666 C 251.037 122.62633333333333 251.037 121.44566666666667 251.50933333333333 120.56849999999999 C 251.98166666666668 119.69133333333333 252.92633333333333 119.11766666666666 252.31916666666666 118.00433333333335 C 251.712 116.891 249.553 115.238 248.3235 114.46300000000001 C 247.09400000000002 113.68799999999999 246.794 113.791 246.64399999999998 113.84250000000002 C 246.494 113.894 246.494 113.894 246.494 113.894 C 246.494 113.894 246.494 113.894 245.75183333333334 114.51800000000001" bx:d="M 246.494 113.894 U 242.041 117.638 U 239.713 117.436 U 239.308 120.27 U 237.284 122.294 U 231.92 125.027 U 229.896 129.176 U 228.884 133.224 U 216.805 158.061 U 216.877 159.919 U 232.325 142.536 U 208.745 163.476 U 235.564 157.202 U 237.385 168.048 U 237.689 175.74 U 238.094 177.764 U 239.713 182.521 U 239.005 186.165 U 240.422 190.011 U 239.814 192.642 U 239.005 196.64 U 239.207 201.903 U 239.713 205.546 U 237.689 211.349 U 234.349 228.059 U 232.73 239.796 U 231.313 258.112 U 233.236 262.712 U 234.045 276.071 U 234.956 279.939 U 229.608 297.611 U 241.669 289.314 U 249.452 275.548 U 246.676 300.426 U 262.477 304.076 U 267.937 270.907 U 278.748 303.877 U 306.447 299.528 U 306.75 273.014 U 296.794 268.776 U 299.325 266.751 U 299.223 258.756 U 299.021 253.19 U 297.503 242.158 U 292.223 222.819 U 289.187 212.293 U 288.18 205.529 U 287.27 194.34 U 286.258 183.427 U 287.472 172.395 U 286.966 165.513 U 311.957 171.693 U 314.473 156.148 U 298.56 124.191 U 282.614 133.506 U 291.399 129.803 U 317.29 167.339 U 302.248 128.952 U 299.415 126.219 U 294.557 122.795 U 295.164 120.771 U 291.824 119.151 U 293.747 116.621 U 291.824 115.204 U 288.079 115.71 U 285.043 113.787 U 277.958 111.662 U 271.481 110.549 U 270.975 114.091 U 272.493 116.925 U 276.542 120.163 U 273.809 122.997 U 269.255 128.058 U 263.182 135.243 U 260.854 138.482 U 264.093 139.494 U 268.546 138.988 U 271.481 140.203 U 267.433 143.947 U 261.158 153.967 U 259.134 153.562 U 255.49 149.008 U 253.669 146.579 U 251.341 142.125 U 250.632 138.178 U 253.264 139.089 U 255.693 139.899 U 257.312 136.761 U 253.669 133.523 U 250.835 129.171 U 251.037 123.807 U 251.037 120.265 U 253.871 118.544 U 247.394 113.585 U 246.494 113.894 U 246.494 113.894 Z 1@d693a6ae" style="fill: rgb(74, 26, 26); stroke-width: 0px;"/>
    <path d="M 237.841 285.918 L 238.076 288.067 C 238.31 290.216 238.779 294.514 239.17 298.734 C 239.561 302.954 239.873 307.096 240.342 310.535 C 240.811 313.973 241.436 316.709 241.983 319.405 C 242.53 322.101 242.999 324.759 243.663 328.354 C 244.328 331.949 245.187 336.481 245.187 338.67 C 245.187 340.858 244.328 340.701 243.937 339.763 C 243.546 338.826 243.624 337.106 243.077 336.677 C 242.53 336.247 241.358 337.106 241.202 338.513 C 241.046 339.92 241.905 341.873 242.296 344.023 C 242.687 346.172 242.608 348.516 242.647 350.353 C 242.686 352.189 242.843 353.518 241.671 355.042 C 240.498 356.565 237.998 358.285 236.161 359.652 C 234.325 361.02 233.152 362.036 232.058 363.638 C 230.964 365.24 229.948 367.429 229.674 368.796 C 229.401 370.164 229.87 370.711 230.652 370.125 C 231.433 369.539 232.527 367.819 233.387 367.233 C 234.246 366.647 234.872 367.194 234.168 368.054 C 233.465 368.913 231.433 370.086 231.316 370.867 C 231.198 371.649 232.996 372.039 235.497 372.391 C 237.997 372.743 241.202 373.055 243.468 372.352 C 245.734 371.649 247.063 369.929 248.782 368.21 C 250.501 366.491 252.612 364.771 254.331 363.521 C 256.05 362.271 257.379 361.489 257.613 360.591 C 257.847 359.692 256.988 358.676 256.949 357.387 C 256.91 356.097 257.691 354.534 257.77 353.284 C 257.848 352.033 257.222 351.095 257.418 349.571 C 257.613 348.047 258.629 345.937 259.332 344.061 C 260.036 342.186 260.426 340.545 260.036 339.334 C 259.645 338.122 258.473 337.341 258.161 335.231 C 257.848 333.12 258.395 329.682 258.786 325.266 C 259.176 320.851 259.411 315.458 259.371 311.434 C 259.332 307.409 259.02 304.752 258.512 302.759 C 258.004 300.766 257.3 299.438 256.91 297.601 C 256.519 295.764 256.441 293.42 255.972 291.857 C 255.503 290.294 254.644 289.512 251.557 288.223 C 248.47 286.934 243.155 285.136 240.498 285.058 C 237.841 284.98 237.841 286.621 237.841 287.442 L 237.841 288.262" bx:d="M 237.841 285.918 U 239.248 298.812 U 240.186 311.238 U 242.061 319.444 U 243.468 327.416 U 246.047 341.014 U 243.468 340.545 U 243.702 335.387 U 240.186 337.966 U 242.765 343.827 U 242.53 350.861 U 242.999 354.846 U 235.497 360.004 U 231.98 363.052 U 228.932 369.617 U 230.339 371.258 U 233.621 366.1 U 235.497 367.741 U 229.401 371.258 U 234.793 372.43 U 244.406 373.368 U 248.391 368.21 U 254.722 363.052 U 258.707 360.708 U 256.128 357.66 U 258.473 352.971 U 256.597 350.157 U 259.645 343.827 U 260.817 338.904 U 257.301 336.559 U 258.942 326.243 U 259.645 310.066 U 258.707 302.095 U 256.597 298.109 U 256.363 291.075 U 253.784 288.731 U 237.841 283.339 U 237.841 288.262 1@0cead340"/>
    <path d="M 278.7921666666667 297.992 C 278.9483333333333 299.047 279.2606666666666 301.157 279.6513333333333 304.04850000000005 C 280.042 306.94 280.511 310.613 281.019 314.247 C 281.527 317.88100000000003 282.074 321.47600000000006 282.9728333333333 325.30533333333335 C 283.87166666666667 329.13466666666665 285.1223333333333 333.1983333333333 285.1615 335.3475 C 285.2006666666667 337.49666666666667 284.02833333333336 337.73133333333334 283.5985 338.63016666666664 C 283.16866666666664 339.529 283.48133333333334 341.092 283.833 342.26416666666665 C 284.18466666666666 343.4363333333333 284.57533333333333 344.2176666666667 284.80966666666666 345.38983333333334 C 285.04400000000004 346.56200000000007 285.122 348.125 285.0828333333333 349.60999999999996 C 285.04366666666664 351.09499999999997 284.88733333333334 352.50199999999995 284.653 354.18233333333336 C 284.41866666666664 355.86266666666666 284.10633333333334 357.8163333333334 283.05133333333333 360.3561666666667 C 281.9963333333333 362.896 280.19866666666667 366.022 278.9091666666667 368.4836666666667 C 277.61966666666666 370.94533333333334 276.83833333333337 372.7426666666667 276.83833333333337 373.75866666666667 C 276.83833333333337 374.7746666666667 277.61966666666666 375.00933333333336 278.362 374.267 C 279.1043333333334 373.5246666666667 279.80766666666665 371.8053333333334 280.3548333333334 371.37550000000005 C 280.90200000000004 370.9456666666667 281.29300000000006 371.8053333333334 281.21483333333333 372.58683333333335 C 281.1366666666667 373.36833333333334 280.58933333333334 374.07166666666666 281.0971666666666 374.93133333333327 C 281.60499999999996 375.791 283.16799999999995 376.80699999999996 284.96549999999996 377.04133333333334 C 286.763 377.27566666666667 288.795 376.7283333333333 290.7488333333333 375.7905 C 292.70266666666663 374.85266666666666 294.5783333333333 373.52433333333335 295.985 372.23500000000007 C 297.39166666666665 370.9456666666667 298.32933333333335 369.69533333333334 298.9155 367.8588333333334 C 299.50166666666667 366.02233333333334 299.73633333333333 363.5996666666667 300.088 361.9193333333333 C 300.43966666666665 360.23900000000003 300.90833333333336 359.301 301.06466666666665 358.1286666666667 C 301.221 356.9563333333333 301.065 355.5496666666666 301.2605 353.596 C 301.45599999999996 351.6423333333333 302.003 349.14166666666665 301.6903333333333 347.6568333333334 C 301.3776666666667 346.172 300.20533333333333 345.703 300.2835 344.8041666666666 C 300.3616666666667 343.9053333333333 301.69033333333334 342.57666666666665 302.2765 341.209 C 302.86266666666666 339.84133333333335 302.70633333333336 338.4346666666667 301.9248333333333 337.7703333333333 C 301.1433333333334 337.106 299.7366666666667 337.184 299.15049999999997 335.113 C 298.5643333333333 333.042 298.79866666666663 328.82199999999995 298.9158333333333 324.3675 C 299.033 319.913 299.033 315.224 298.7595 311.78533333333337 C 298.48600000000005 308.3466666666667 297.939 306.15833333333336 297.2356666666667 304.04833333333335 C 296.5323333333333 301.93833333333333 295.67266666666666 299.9066666666667 294.8523333333333 296.34166666666664 C 294.032 292.77666666666664 293.25100000000003 287.67833333333334 291.5706666666667 286.50600000000003 C 289.89033333333333 285.33366666666666 287.3106666666667 288.08733333333333 284.5751666666667 289.0738333333333 C 281.8396666666667 290.06033333333335 278.9483333333333 289.2796666666667 277.9325 290.29566666666665 C 276.9166666666667 291.31166666666667 277.77633333333335 294.12433333333337 278.20616666666666 295.5306666666667 C 278.636 296.937 278.636 296.937 278.636 296.93699999999995 C 278.636 296.937 278.636 296.937 278.7921666666667 297.992" bx:d="M 278.636 296.937 U 279.573 303.267 U 280.98 314.286 U 282.621 325.071 U 286.373 337.262 U 282.856 337.966 U 283.794 342.655 U 284.966 344.999 U 285.2 349.688 U 284.731 353.909 U 283.794 359.77 U 278.401 369.148 U 276.057 374.54 U 278.401 375.244 U 280.511 370.086 U 281.684 372.665 U 280.042 374.775 U 284.731 377.823 U 290.827 376.181 U 296.454 372.196 U 299.267 368.445 U 299.971 361.177 U 301.377 358.363 U 300.909 354.143 U 302.55 346.641 U 299.033 345.234 U 303.019 341.248 U 302.55 337.028 U 298.33 337.262 U 299.033 324.602 U 299.033 310.535 U 297.392 303.97 U 294.813 297.875 U 292.47 282.58 U 284.731 290.841 U 276.057 288.499 U 278.636 296.937 U 278.636 296.937 Z 1@cb954ec9"/>
    <path d="M 257.14883333333336 98.19983333333333 C 257.84566666666666 98.05566666666665 259.2393333333333 97.76733333333334 260.6331666666667 97.8395 C 262.027 97.91166666666668 263.421 98.34433333333334 264.142 98.96916666666665 C 264.863 99.594 264.911 100.411 264.43033333333335 100.98766666666666 C 263.94966666666664 101.56433333333332 262.9403333333333 101.90066666666667 261.64983333333333 102.13733333333333 C 260.3593333333333 102.37399999999998 258.78766666666667 102.51100000000001 257.8745 101.86216666666667 C 256.96133333333336 101.21333333333332 256.70666666666665 99.77866666666667 256.5793333333333 99.06133333333332 C 256.452 98.344 256.452 98.344 256.452 98.344 C 256.452 98.344 256.452 98.344 257.14883333333336 98.19983333333333" bx:d="M 256.452 98.344 U 260.633 97.479 U 264.815 98.777 U 264.959 101.228 U 261.931 102.237 U 257.216 102.648 U 256.452 98.344 U 256.452 98.344 Z 1@e95ff42c" style="stroke-opacity: 0.3; stroke-dashoffset: 100px; stroke-linecap: square; paint-order: stroke; stroke-width: 0.5px; stroke: rgb(53, 8, 66); fill: rgb(100, 2, 116);"/>
    <path d="M 243.08983333333333 99.47366666666666 C 243.71466666666666 99.30533333333334 244.96433333333334 98.96866666666666 245.97366666666665 98.99266666666666 C 246.98299999999998 99.01666666666667 247.75199999999998 99.40133333333334 248.04033333333334 100.02616666666667 C 248.32866666666666 100.651 248.13633333333334 101.516 247.39133333333334 101.97266666666667 C 246.64633333333333 102.42933333333333 245.34866666666665 102.47766666666666 244.43549999999996 102.02116666666666 C 243.52233333333334 101.56466666666665 242.99366666666666 100.60333333333334 242.72933333333333 100.12266666666666 C 242.465 99.642 242.465 99.642 242.465 99.642 C 242.465 99.642 242.465 99.642 243.08983333333333 99.47366666666666" bx:d="M 242.465 99.642 U 246.214 98.632 U 248.521 99.786 U 247.944 102.381 U 244.051 102.526 U 242.465 99.642 U 242.465 99.642 Z 1@7cee679f" style="stroke-opacity: 0.3; stroke-dashoffset: 100px; stroke-linecap: square; paint-order: stroke; stroke: rgb(96, 60, 0); stroke-width: 0.5px;"/>
    <path d="M 253.135 113.484 L 253.784 113.24366666666667 C 254.433 113.00333333333333 255.731 112.52266666666667 256.64433333333335 112.06616666666667 C 257.55766666666665 111.60966666666667 258.08633333333336 111.17733333333335 258.35066666666665 110.96116666666667 L 258.615 110.745" bx:d="M 253.135 113.484 U 257.029 112.042 U 258.615 110.745 1@7847da7a" style="fill: none; stroke-opacity: 0.3; stroke-dashoffset: 100px; stroke-linecap: square; paint-order: stroke; stroke: rgb(96, 60, 0); stroke-width: 0.5px;"/>
    <path d="M 255.298 108.582 L 255.03366666666668 108.84633333333333 C 254.76933333333332 109.11066666666666 254.24066666666667 109.63933333333334 253.6158333333333 109.8555 C 252.99099999999999 110.07166666666667 252.26999999999998 109.97533333333335 251.32566666666665 109.7555 C 250.38133333333334 109.53566666666667 249.21366666666665 109.19233333333334 248.97349999999997 108.35133333333333 C 248.73333333333335 107.51033333333334 249.42066666666665 106.17166666666667 249.88433333333333 104.9015 C 250.34799999999998 103.63133333333333 250.588 102.42966666666666 250.708 101.82883333333332 L 250.828 101.228" bx:d="M 255.298 108.582 U 253.712 110.168 U 251.549 109.879 U 248.046 108.849 U 250.108 104.833 U 250.828 101.228 1@7c5b14c9" style="fill: none; stroke-opacity: 0.3; stroke-dashoffset: 100px; stroke-linecap: square; paint-order: stroke; stroke: rgb(96, 60, 0); stroke-width: 0.5px;"/>
    <path d="M 256.596 95.46 L 257.79766666666666 95.36383333333333 C 258.99933333333337 95.26766666666667 261.4026666666667 95.07533333333333 263.109 95.1955 C 264.8153333333333 95.31566666666667 265.82466666666664 95.74833333333333 266.32933333333335 95.96466666666667 L 266.834 96.181" bx:d="M 256.596 95.46 U 263.806 94.883 U 266.834 96.181 1@b8619c6c" style="fill: none; stroke-opacity: 0.3; stroke-dashoffset: 100px; stroke-linecap: square; paint-order: stroke; stroke: rgb(96, 60, 0); stroke-width: 0.5px;"/>
    <path d="M 243.042 96.181 L 247.8 96.037" bx:d="M 243.042 96.181 U 247.8 96.037 1@8cabd048" style="fill: none; stroke-opacity: 0.3; stroke-dashoffset: 100px; stroke-linecap: square; paint-order: stroke; stroke: rgb(96, 60, 0); stroke-width: 0.5px;"/>
  </g>
  <g transform="matrix(1, 0, 0, 1, 341.051183, -73.659005)">
    <title>Kapak</title>
    <path d="M 382.787 139.124 L 397.3993333333333 151.64883333333333 C 412.0116666666666 164.17366666666666 441.23633333333333 189.22333333333333 456.2283333333333 201.53416666666666 C 471.2203333333334 213.845 471.9796666666666 213.417 472.7298333333333 212.70900000000003 C 473.48 212.001 474.221 211.013 474.4041666666667 209.54899999999998 C 474.58733333333333 208.085 474.2126666666666 206.145 459.7331666666667 192.87400000000002 C 445.2536666666667 179.60299999999998 416.6693333333333 155.001 402.37716666666665 142.70000000000002 L 388.085 130.399" bx:d="M 382.787 139.124 U 470.461 214.273 U 472.739 212.989 U 474.962 210.025 U 473.838 204.205 U 388.085 130.399 1@ec0464d8" style="stroke: rgb(218, 85, 85);"/>
    <path d="M 345.52450000000005 159.28033333333335 C 351.247 163.85166666666666 362.692 172.99433333333332 369.58483333333334 176.20400000000004 C 376.47766666666666 179.41366666666667 378.8183333333333 176.69033333333334 382.8498333333334 170.95166666666668 C 386.8813333333333 165.213 392.6036666666667 156.45900000000003 402.22766666666666 147.316 C 411.8516666666667 138.173 425.37733333333335 128.641 430.9696666666667 123.097 C 436.56200000000007 117.553 434.221 115.997 430.44949999999994 114.05166666666668 C 426.67800000000005 112.10633333333334 421.47599999999994 109.77166666666666 417.44433333333336 109.67433333333332 C 413.41266666666667 109.577 410.55133333333333 111.717 403.2683333333334 116.38583333333334 C 395.98533333333336 121.05466666666666 384.2806666666667 128.25233333333333 372.96600000000007 135.061 C 361.6513333333334 141.86966666666666 350.7266666666667 148.28933333333333 345.26433333333335 151.4991666666667 C 339.802 154.709 339.802 154.709 339.8020000000001 154.70900000000003 C 339.802 154.709 339.802 154.709 345.52450000000005 159.28033333333335" bx:d="M 339.802 154.709 U 374.137 182.137 U 381.159 173.967 U 398.326 147.705 U 438.903 119.109 U 431.88 114.441 U 416.274 107.437 U 407.69 113.857 U 372.576 135.45 U 339.802 154.709 U 339.802 154.709 Z 1@e1dae7bd" style="fill: rgb(202, 202, 202);"/>
  </g>
</svg>